<?xml version="1.0" encoding="UTF-8" standalone="no"?>
<!DOCTYPE svg PUBLIC "-//W3C//DTD SVG 1.1//EN" "http://www.w3.org/Graphics/SVG/1.1/DTD/svg11.dtd">
<!-- Created with Vectornator (http://vectornator.io/) -->
<svg height="100%" stroke-miterlimit="10" style="fill-rule:nonzero;clip-rule:evenodd;stroke-linecap:round;stroke-linejoin:round;" version="1.1" viewBox="0 0 1190.7 1683.99" width="100%" xml:space="preserve" xmlns="http://www.w3.org/2000/svg" xmlns:vectornator="http://vectornator.io" xmlns:xlink="http://www.w3.org/1999/xlink">
<defs>
<filter color-interpolation-filters="sRGB" filterUnits="userSpaceOnUse" height="882.042" id="Filter" width="602.649" x="516.199" y="394.601">
<feDropShadow dx="-3.67321e-05" dy="10" flood-color="#000000" flood-opacity="0.0578922" in="SourceGraphic" result="Shadow" stdDeviation="5"/>
</filter>
<linearGradient gradientTransform="matrix(1.13282e-16 -0.901045 2.5113 1.62059e-16 -1587.72 1314.25)" gradientUnits="userSpaceOnUse" id="LinearGradient" x1="304.691" x2="684.48" y1="831.123" y2="830.011">
<stop offset="0" stop-color="#ffffff" stop-opacity="0"/>
<stop offset="0.860896" stop-color="#ffffff"/>
</linearGradient>
</defs>
<g id="Calque-1" vectornator:layerName="Calque 1">
<g filter="url(#Filter)" vectornator:layerName="Grouper 2" vectornator:shadowAngle="1.5708" vectornator:shadowColor="#000000" vectornator:shadowOffset="10" vectornator:shadowOpacity="0.0578922" vectornator:shadowRadius="10">
<path d="M538.737 397.101L1096.08 397.101C1101.61 397.101 1106.08 401.578 1106.08 407.101L1106.08 1244.14C1106.08 1249.67 1101.61 1254.14 1096.08 1254.14L538.737 1254.14C533.214 1254.14 528.737 1249.67 528.737 1244.14L528.737 407.101C528.737 401.578 533.214 397.101 538.737 397.101Z" fill="#ffffff" fill-rule="nonzero" opacity="1" stroke="none"/>
<g opacity="1" vectornator:layerName="Bilan">
<g fill="#383f50" opacity="1" stroke="none">
<path d="M596.232 455.102L596.232 457.665L588.981 457.665L588.981 476.621L586.022 476.621L586.022 457.665L578.771 457.665L578.771 455.102L596.232 455.102Z"/>
<path d="M601.447 474.921C603.195 474.921 604.394 474.26 605.043 472.936C605.692 471.613 606.017 470.141 606.017 468.52C606.017 467.055 605.783 465.864 605.314 464.946C604.572 463.5 603.293 462.778 601.476 462.778C599.865 462.778 598.693 463.393 597.96 464.623C597.228 465.854 596.862 467.338 596.862 469.077C596.862 470.747 597.228 472.138 597.96 473.251C598.693 474.365 599.855 474.921 601.447 474.921ZM601.549 460.478C603.571 460.478 605.28 461.152 606.676 462.499C608.073 463.847 608.771 465.83 608.771 468.447C608.771 470.976 608.156 473.066 606.925 474.716C605.695 476.367 603.786 477.192 601.198 477.192C599.04 477.192 597.326 476.462 596.056 475.002C594.787 473.542 594.152 471.581 594.152 469.121C594.152 466.484 594.821 464.384 596.159 462.822C597.497 461.259 599.293 460.478 601.549 460.478Z"/>
<path d="M612.433 456.552L615.099 456.552L615.099 460.932L617.604 460.932L617.604 463.085L615.099 463.085L615.099 473.325C615.099 473.872 615.285 474.238 615.656 474.423C615.861 474.531 616.203 474.584 616.681 474.584C616.808 474.584 616.945 474.582 617.091 474.577C617.238 474.572 617.409 474.56 617.604 474.54L617.604 476.621C617.301 476.708 616.986 476.772 616.659 476.811C616.332 476.85 615.978 476.87 615.597 476.87C614.367 476.87 613.532 476.555 613.092 475.925C612.653 475.295 612.433 474.477 612.433 473.471L612.433 463.085L610.309 463.085L610.309 460.932L612.433 460.932L612.433 456.552Z"/>
<path d="M622.262 472.446C622.262 473.207 622.541 473.808 623.097 474.247C623.654 474.687 624.313 474.907 625.075 474.907C626.002 474.907 626.901 474.692 627.77 474.262C629.235 473.549 629.967 472.382 629.967 470.761L629.967 468.637C629.645 468.842 629.23 469.013 628.722 469.15C628.214 469.287 627.716 469.384 627.228 469.443L625.631 469.648C624.674 469.775 623.957 469.975 623.478 470.248C622.668 470.707 622.262 471.44 622.262 472.446ZM628.649 467.114C629.254 467.036 629.66 466.782 629.865 466.352C629.982 466.118 630.041 465.781 630.041 465.341C630.041 464.443 629.721 463.791 629.081 463.386C628.441 462.98 627.526 462.778 626.334 462.778C624.958 462.778 623.981 463.149 623.405 463.891C623.083 464.301 622.873 464.912 622.775 465.722L620.314 465.722C620.363 463.789 620.99 462.443 622.196 461.686C623.402 460.93 624.801 460.551 626.393 460.551C628.239 460.551 629.738 460.903 630.89 461.606C632.033 462.309 632.604 463.403 632.604 464.887L632.604 473.925C632.604 474.199 632.66 474.418 632.772 474.584C632.885 474.75 633.122 474.833 633.483 474.833C633.6 474.833 633.732 474.826 633.878 474.811C634.025 474.797 634.181 474.775 634.347 474.746L634.347 476.694C633.937 476.811 633.625 476.884 633.41 476.914C633.195 476.943 632.902 476.957 632.531 476.957C631.623 476.957 630.963 476.635 630.553 475.991C630.338 475.649 630.187 475.165 630.099 474.54C629.562 475.244 628.791 475.854 627.785 476.372C626.779 476.889 625.67 477.148 624.459 477.148C623.004 477.148 621.815 476.706 620.893 475.822C619.97 474.938 619.508 473.832 619.508 472.504C619.508 471.049 619.962 469.921 620.871 469.121C621.779 468.32 622.97 467.827 624.445 467.641L628.649 467.114Z"/>
<path d="M636.999 455.102L639.635 455.102L639.635 476.621L636.999 476.621L636.999 455.102Z"/>
</g>
<g fill="#383f50" opacity="1" stroke="none">
<path d="M707.492 467.824C707.069 467.824 706.703 467.876 706.393 467.982C705.848 468.178 705.437 468.54 705.16 469.069L702.035 468.922L703.281 459.144L713.034 459.144L713.034 462.098L705.795 462.098L705.16 465.968C705.698 465.618 706.117 465.386 706.418 465.272C706.922 465.085 707.537 464.992 708.261 464.992C709.726 464.992 711.004 465.484 712.094 466.469C713.185 467.453 713.73 468.886 713.73 470.765C713.73 472.401 713.205 473.862 712.155 475.148C711.105 476.434 709.535 477.077 707.443 477.077C705.759 477.077 704.375 476.625 703.293 475.722C702.21 474.818 701.608 473.536 701.486 471.876L704.953 471.876C705.091 472.633 705.356 473.217 705.746 473.628C706.137 474.039 706.707 474.244 707.455 474.244C708.318 474.244 708.975 473.941 709.427 473.335C709.878 472.729 710.104 471.966 710.104 471.046C710.104 470.143 709.893 469.38 709.47 468.757C709.046 468.135 708.387 467.824 707.492 467.824Z"/>
<path d="M716.916 475.502C715.899 474.46 715.39 473.195 715.39 471.705C715.39 470.713 715.616 469.813 716.067 469.008C716.519 468.202 717.18 467.596 718.051 467.189C717.197 466.619 716.641 466.003 716.385 465.339C716.128 464.676 716 464.056 716 463.478C716 462.192 716.485 461.095 717.453 460.188C718.421 459.281 719.789 458.827 721.555 458.827C723.32 458.827 724.688 459.281 725.656 460.188C726.624 461.095 727.109 462.192 727.109 463.478C727.109 464.056 726.981 464.676 726.724 465.339C726.468 466.003 725.912 466.578 725.058 467.067C725.929 467.555 726.584 468.202 727.023 469.008C727.463 469.813 727.682 470.713 727.682 471.705C727.682 473.195 727.131 474.462 726.028 475.508C724.926 476.554 723.386 477.077 721.408 477.077C719.43 477.077 717.933 476.552 716.916 475.502ZM719.003 471.473C719.003 472.344 719.229 473.02 719.681 473.5C720.132 473.98 720.757 474.22 721.555 474.22C722.352 474.22 722.977 473.98 723.428 473.5C723.88 473.02 724.106 472.344 724.106 471.473C724.106 470.57 723.876 469.885 723.416 469.417C722.956 468.949 722.336 468.715 721.555 468.715C720.773 468.715 720.153 468.949 719.693 469.417C719.233 469.885 719.003 470.57 719.003 471.473ZM719.919 465.443C720.309 465.85 720.855 466.054 721.555 466.054C722.263 466.054 722.81 465.85 723.196 465.443C723.583 465.036 723.776 464.511 723.776 463.869C723.776 463.169 723.583 462.621 723.196 462.227C722.81 461.832 722.263 461.635 721.555 461.635C720.855 461.635 720.307 461.832 719.913 462.227C719.518 462.621 719.321 463.169 719.321 463.869C719.321 464.511 719.52 465.036 719.919 465.443Z"/>
<path d="M750.009 468.751L741.269 468.751L741.269 473.378L751.23 473.378L751.23 476.613L737.595 476.613L737.595 458.619L750.79 458.619L750.79 461.806L741.269 461.806L741.269 465.626L750.009 465.626L750.009 468.751Z"/>
<path d="M764.804 469.679L764.804 458.619L768.625 458.619L768.625 469.679C768.625 471.591 768.328 473.081 767.734 474.147C766.627 476.1 764.515 477.077 761.398 477.077C758.281 477.077 756.166 476.1 755.051 474.147C754.457 473.081 754.159 471.591 754.159 469.679L754.159 458.619L757.98 458.619L757.98 469.679C757.98 470.916 758.127 471.819 758.42 472.389C758.875 473.398 759.868 473.903 761.398 473.903C762.92 473.903 763.909 473.398 764.365 472.389C764.658 471.819 764.804 470.916 764.804 469.679Z"/>
<path d="M779.855 469.557L775.973 469.557L775.973 476.613L772.299 476.613L772.299 458.619L781.125 458.619C782.386 458.644 783.357 458.799 784.036 459.083C784.716 459.368 785.291 459.787 785.763 460.341C786.154 460.796 786.463 461.301 786.691 461.854C786.919 462.408 787.033 463.038 787.033 463.746C787.033 464.601 786.817 465.441 786.386 466.267C785.955 467.093 785.243 467.677 784.25 468.019C785.08 468.353 785.668 468.827 786.014 469.441C786.36 470.055 786.533 470.993 786.533 472.255L786.533 473.463C786.533 474.285 786.565 474.843 786.63 475.136C786.728 475.599 786.956 475.941 787.314 476.161L787.314 476.613L783.176 476.613C783.062 476.214 782.98 475.892 782.931 475.648C782.834 475.144 782.781 474.627 782.773 474.098L782.748 472.426C782.732 471.278 782.523 470.513 782.12 470.131C781.717 469.748 780.962 469.557 779.855 469.557ZM782.138 466.286C782.887 465.944 783.261 465.268 783.261 464.259C783.261 463.169 782.899 462.436 782.175 462.062C781.768 461.85 781.157 461.744 780.344 461.744L775.973 461.744L775.973 466.578L780.234 466.578C781.08 466.578 781.715 466.481 782.138 466.286Z"/>
</g>
</g>
<g opacity="1" vectornator:layerName="Ligne 1">
<path d="M528.925 517.759L1106.35 517.759L1106.35 575.67L528.925 575.67L528.925 517.759Z" fill="#6eaeff" fill-opacity="0.15" fill-rule="nonzero" opacity="1" stroke="none"/>
<g opacity="1">
<g fill="#383f50" opacity="1" stroke="none"/>
<g fill="#383f50" opacity="1" stroke="none">
<path d="M706.587 549.77C706.164 549.77 705.798 549.823 705.488 549.929C704.943 550.124 704.532 550.486 704.256 551.015L701.131 550.869L702.376 541.091L712.129 541.091L712.129 544.045L704.89 544.045L704.256 547.914C704.793 547.564 705.212 547.333 705.513 547.219C706.017 547.031 706.632 546.938 707.356 546.938C708.821 546.938 710.099 547.43 711.189 548.415C712.28 549.4 712.825 550.832 712.825 552.712C712.825 554.348 712.3 555.808 711.25 557.094C710.2 558.38 708.63 559.023 706.538 559.023C704.854 559.023 703.47 558.571 702.388 557.668C701.305 556.765 700.703 555.483 700.581 553.823L704.048 553.823C704.186 554.579 704.451 555.163 704.841 555.574C705.232 555.985 705.802 556.191 706.55 556.191C707.413 556.191 708.07 555.888 708.522 555.281C708.974 554.675 709.199 553.912 709.199 552.993C709.199 552.089 708.988 551.326 708.565 550.704C708.141 550.081 707.482 549.77 706.587 549.77Z"/>
<path d="M720.711 558.998C718.456 558.998 716.876 558.209 715.968 556.63C715.061 555.051 714.607 552.801 714.607 549.88C714.607 546.958 715.061 544.704 715.968 543.117C716.876 541.53 718.456 540.737 720.711 540.737C722.965 540.737 724.548 541.53 725.459 543.117C726.362 544.704 726.814 546.958 726.814 549.88C726.814 552.801 726.36 555.051 725.453 556.63C724.546 558.209 722.965 558.998 720.711 558.998ZM722.749 554.543C723.067 553.469 723.225 551.914 723.225 549.88C723.225 547.748 723.065 546.169 722.743 545.143C722.422 544.118 721.744 543.605 720.711 543.605C719.677 543.605 718.993 544.118 718.66 545.143C718.326 546.169 718.159 547.748 718.159 549.88C718.159 551.914 718.326 553.471 718.66 554.549C718.993 555.627 719.677 556.166 720.711 556.166C721.744 556.166 722.424 555.625 722.749 554.543Z"/>
<path d="M749.104 550.698L740.364 550.698L740.364 555.324L750.325 555.324L750.325 558.559L736.69 558.559L736.69 540.566L749.885 540.566L749.885 543.752L740.364 543.752L740.364 547.573L749.104 547.573L749.104 550.698Z"/>
<path d="M763.899 551.625L763.899 540.566L767.72 540.566L767.72 551.625C767.72 553.538 767.423 555.027 766.829 556.093C765.722 558.046 763.61 559.023 760.493 559.023C757.376 559.023 755.261 558.046 754.146 556.093C753.552 555.027 753.255 553.538 753.255 551.625L753.255 540.566L757.075 540.566L757.075 551.625C757.075 552.862 757.222 553.766 757.515 554.335C757.971 555.344 758.963 555.849 760.493 555.849C762.015 555.849 763.004 555.344 763.46 554.335C763.753 553.766 763.899 552.862 763.899 551.625Z"/>
<path d="M778.95 551.503L775.069 551.503L775.069 558.559L771.394 558.559L771.394 540.566L780.22 540.566C781.481 540.59 782.452 540.745 783.131 541.03C783.811 541.314 784.387 541.734 784.859 542.287C785.249 542.743 785.558 543.247 785.786 543.801C786.014 544.354 786.128 544.985 786.128 545.693C786.128 546.547 785.912 547.387 785.481 548.214C785.05 549.04 784.338 549.623 783.345 549.965C784.175 550.299 784.763 550.773 785.109 551.387C785.455 552.002 785.628 552.94 785.628 554.201L785.628 555.41C785.628 556.231 785.66 556.789 785.725 557.082C785.823 557.546 786.051 557.888 786.409 558.107L786.409 558.559L782.271 558.559C782.157 558.16 782.075 557.839 782.027 557.595C781.929 557.09 781.876 556.573 781.868 556.044L781.843 554.372C781.827 553.224 781.618 552.46 781.215 552.077C780.812 551.695 780.057 551.503 778.95 551.503ZM781.233 548.232C781.982 547.89 782.356 547.215 782.356 546.205C782.356 545.115 781.994 544.383 781.27 544.008C780.863 543.797 780.252 543.691 779.439 543.691L775.069 543.691L775.069 548.525L779.329 548.525C780.175 548.525 780.81 548.427 781.233 548.232Z"/>
</g>
<g fill="#383f50" opacity="1" stroke="none">
<path d="M840.157 545.011L840.157 543.461C841.617 543.319 842.635 543.081 843.211 542.748C843.788 542.415 844.218 541.627 844.503 540.384L846.098 540.384L846.098 556.399L843.941 556.399L843.941 545.011L840.157 545.011Z"/>
<path d="M851.466 556.399C851.541 555.013 851.827 553.808 852.325 552.782C852.823 551.757 853.794 550.824 855.239 549.986L857.395 548.739C858.361 548.178 859.039 547.699 859.428 547.302C860.042 546.68 860.349 545.969 860.349 545.168C860.349 544.232 860.068 543.489 859.507 542.939C858.945 542.389 858.197 542.113 857.261 542.113C855.876 542.113 854.917 542.637 854.386 543.686C854.101 544.247 853.944 545.026 853.914 546.022L851.859 546.022C851.881 544.621 852.14 543.48 852.634 542.596C853.51 541.039 855.056 540.26 857.272 540.26C859.114 540.26 860.46 540.758 861.309 541.754C862.159 542.75 862.584 543.858 862.584 545.078C862.584 546.366 862.131 547.467 861.225 548.38C860.701 548.912 859.761 549.555 858.406 550.312L856.868 551.165C856.134 551.569 855.557 551.955 855.138 552.322C854.389 552.973 853.918 553.696 853.723 554.489L862.505 554.489L862.505 556.399L851.466 556.399Z"/>
<path d="M868.772 539.901L870.479 539.901L865.246 556.399L863.539 556.399L868.772 539.901Z"/>
<path d="M876.15 540.316C878.232 540.316 879.737 541.174 880.665 542.888C881.384 544.213 881.743 546.029 881.743 548.335C881.743 550.521 881.417 552.329 880.766 553.759C879.823 555.811 878.28 556.836 876.139 556.836C874.208 556.836 872.77 555.998 871.827 554.321C871.041 552.921 870.647 551.042 870.647 548.683C870.647 546.856 870.883 545.288 871.355 543.978C872.238 541.537 873.837 540.316 876.15 540.316ZM876.128 554.995C877.176 554.995 878.011 554.531 878.632 553.602C879.254 552.674 879.564 550.944 879.564 548.414C879.564 546.587 879.34 545.084 878.891 543.905C878.441 542.725 877.569 542.136 876.274 542.136C875.083 542.136 874.213 542.695 873.663 543.815C873.113 544.934 872.837 546.583 872.837 548.762C872.837 550.401 873.013 551.719 873.365 552.715C873.904 554.235 874.825 554.995 876.128 554.995Z"/>
<path d="M883.439 556.399C883.514 555.013 883.8 553.808 884.298 552.782C884.796 551.757 885.767 550.824 887.212 549.986L889.369 548.739C890.334 548.178 891.012 547.699 891.401 547.302C892.015 546.68 892.322 545.969 892.322 545.168C892.322 544.232 892.041 543.489 891.48 542.939C890.918 542.389 890.17 542.113 889.234 542.113C887.849 542.113 886.89 542.637 886.359 543.686C886.074 544.247 885.917 545.026 885.887 546.022L883.832 546.022C883.854 544.621 884.113 543.48 884.607 542.596C885.483 541.039 887.029 540.26 889.245 540.26C891.087 540.26 892.433 540.758 893.282 541.754C894.132 542.75 894.557 543.858 894.557 545.078C894.557 546.366 894.104 547.467 893.198 548.38C892.674 548.912 891.735 549.555 890.379 550.312L888.841 551.165C888.107 551.569 887.531 551.955 887.111 552.322C886.363 552.973 885.891 553.696 885.696 554.489L894.479 554.489L894.479 556.399L883.439 556.399Z"/>
<path d="M900.745 539.901L902.452 539.901L897.219 556.399L895.512 556.399L900.745 539.901Z"/>
<path d="M902.621 556.399C902.695 555.013 902.982 553.808 903.48 552.782C903.978 551.757 904.949 550.824 906.394 549.986L908.55 548.739C909.516 548.178 910.194 547.699 910.583 547.302C911.197 546.68 911.504 545.969 911.504 545.168C911.504 544.232 911.223 543.489 910.662 542.939C910.1 542.389 909.351 542.113 908.416 542.113C907.03 542.113 906.072 542.637 905.541 543.686C905.256 544.247 905.099 545.026 905.069 546.022L903.014 546.022C903.036 544.621 903.294 543.48 903.789 542.596C904.665 541.039 906.211 540.26 908.427 540.26C910.269 540.26 911.614 540.758 912.464 541.754C913.314 542.75 913.739 543.858 913.739 545.078C913.739 546.366 913.286 547.467 912.38 548.38C911.856 548.912 910.916 549.555 909.561 550.312L908.022 551.165C907.289 551.569 906.712 551.955 906.293 552.322C905.544 552.973 905.073 553.696 904.878 554.489L913.66 554.489L913.66 556.399L902.621 556.399Z"/>
<path d="M920.915 540.316C922.996 540.316 924.501 541.174 925.43 542.888C926.148 544.213 926.508 546.029 926.508 548.335C926.508 550.521 926.182 552.329 925.531 553.759C924.587 555.811 923.045 556.836 920.904 556.836C918.972 556.836 917.535 555.998 916.591 554.321C915.805 552.921 915.412 551.042 915.412 548.683C915.412 546.856 915.648 545.288 916.12 543.978C917.003 541.537 918.602 540.316 920.915 540.316ZM920.893 554.995C921.941 554.995 922.776 554.531 923.397 553.602C924.018 552.674 924.329 550.944 924.329 548.414C924.329 546.587 924.104 545.084 923.655 543.905C923.206 542.725 922.334 542.136 921.039 542.136C919.848 542.136 918.978 542.695 918.427 543.815C917.877 544.934 917.602 546.583 917.602 548.762C917.602 550.401 917.778 551.719 918.13 552.715C918.669 554.235 919.59 554.995 920.893 554.995Z"/>
<path d="M928.204 556.399C928.278 555.013 928.565 553.808 929.063 552.782C929.561 551.757 930.532 550.824 931.977 549.986L934.133 548.739C935.099 548.178 935.777 547.699 936.166 547.302C936.78 546.68 937.087 545.969 937.087 545.168C937.087 544.232 936.806 543.489 936.245 542.939C935.683 542.389 934.934 542.113 933.999 542.113C932.613 542.113 931.655 542.637 931.124 543.686C930.839 544.247 930.682 545.026 930.652 546.022L928.597 546.022C928.619 544.621 928.877 543.48 929.372 542.596C930.248 541.039 931.794 540.26 934.01 540.26C935.852 540.26 937.197 540.758 938.047 541.754C938.897 542.75 939.322 543.858 939.322 545.078C939.322 546.366 938.869 547.467 937.963 548.38C937.439 548.912 936.499 549.555 935.144 550.312L933.605 551.165C932.872 551.569 932.295 551.955 931.876 552.322C931.127 552.973 930.656 553.696 930.461 554.489L939.243 554.489L939.243 556.399L928.204 556.399Z"/>
<path d="M946.251 556.836C944.349 556.836 942.97 556.314 942.113 555.27C941.255 554.225 940.827 552.955 940.827 551.457L942.938 551.457C943.028 552.498 943.222 553.254 943.522 553.726C944.046 554.572 944.993 554.995 946.363 554.995C947.426 554.995 948.28 554.71 948.924 554.141C949.568 553.572 949.89 552.838 949.89 551.94C949.89 550.832 949.551 550.057 948.873 549.615C948.196 549.174 947.254 548.953 946.049 548.953C945.914 548.953 945.777 548.955 945.639 548.958C945.5 548.962 945.36 548.968 945.218 548.975L945.218 547.19C945.427 547.212 945.603 547.227 945.746 547.234C945.888 547.242 946.041 547.246 946.206 547.246C946.962 547.246 947.584 547.126 948.07 546.886C948.924 546.467 949.351 545.718 949.351 544.64C949.351 543.839 949.066 543.221 948.497 542.787C947.928 542.353 947.265 542.136 946.509 542.136C945.162 542.136 944.229 542.585 943.713 543.483C943.428 543.978 943.267 544.681 943.23 545.595L941.231 545.595C941.231 544.397 941.471 543.379 941.95 542.54C942.773 541.043 944.222 540.294 946.296 540.294C947.936 540.294 949.205 540.659 950.103 541.389C951.001 542.119 951.451 543.177 951.451 544.562C951.451 545.55 951.185 546.351 950.653 546.965C950.324 547.347 949.897 547.646 949.373 547.863C950.219 548.095 950.88 548.543 951.355 549.205C951.831 549.868 952.068 550.678 952.068 551.637C952.068 553.172 951.563 554.422 950.552 555.388C949.541 556.354 948.108 556.836 946.251 556.836Z"/>
</g>
<path d="M998.334 548.003L1005.69 548.003L1005.69 550.713L998.334 550.713L998.334 548.003Z" fill="#383f50" opacity="1" stroke="none"/>
</g>
</g>
<g opacity="1" vectornator:layerName="ligne 2">
<g opacity="1">
<g fill="#383f50" opacity="1" stroke="none"/>
<g fill="#383f50" opacity="1" stroke="none">
<path d="M716.012 609.01C715.589 609.01 715.222 609.062 714.913 609.168C714.368 609.364 713.957 609.726 713.68 610.255L710.555 610.108L711.8 600.33L721.554 600.33L721.554 603.284L714.315 603.284L713.68 607.154C714.217 606.804 714.637 606.572 714.938 606.458C715.442 606.271 716.057 606.178 716.781 606.178C718.246 606.178 719.523 606.67 720.614 607.655C721.704 608.639 722.25 610.072 722.25 611.951C722.25 613.587 721.725 615.048 720.675 616.334C719.625 617.62 718.055 618.262 715.963 618.262C714.278 618.262 712.895 617.811 711.813 616.907C710.73 616.004 710.128 614.722 710.006 613.062L713.473 613.062C713.611 613.819 713.876 614.403 714.266 614.814C714.657 615.225 715.227 615.43 715.975 615.43C716.838 615.43 717.495 615.127 717.947 614.521C718.398 613.915 718.624 613.152 718.624 612.232C718.624 611.329 718.413 610.566 717.989 609.943C717.566 609.321 716.907 609.01 716.012 609.01Z"/>
<path d="M744.625 609.937L735.885 609.937L735.885 614.564L745.846 614.564L745.846 617.799L732.211 617.799L732.211 599.805L745.406 599.805L745.406 602.991L735.885 602.991L735.885 606.812L744.625 606.812L744.625 609.937Z"/>
<path d="M759.42 610.865L759.42 599.805L763.241 599.805L763.241 610.865C763.241 612.777 762.944 614.267 762.35 615.333C761.243 617.286 759.131 618.262 756.014 618.262C752.897 618.262 750.782 617.286 749.667 615.333C749.073 614.267 748.776 612.777 748.776 610.865L748.776 599.805L752.596 599.805L752.596 610.865C752.596 612.102 752.743 613.005 753.036 613.575C753.492 614.584 754.484 615.089 756.014 615.089C757.536 615.089 758.525 614.584 758.981 613.575C759.274 613.005 759.42 612.102 759.42 610.865Z"/>
<path d="M774.471 610.743L770.59 610.743L770.59 617.799L766.915 617.799L766.915 599.805L775.741 599.805C777.002 599.83 777.973 599.984 778.652 600.269C779.332 600.554 779.908 600.973 780.38 601.527C780.77 601.982 781.079 602.487 781.307 603.04C781.535 603.594 781.649 604.224 781.649 604.932C781.649 605.787 781.433 606.627 781.002 607.453C780.571 608.279 779.859 608.863 778.866 609.205C779.696 609.539 780.284 610.013 780.63 610.627C780.976 611.241 781.149 612.179 781.149 613.441L781.149 614.649C781.149 615.471 781.181 616.029 781.246 616.322C781.344 616.785 781.572 617.127 781.93 617.347L781.93 617.799L777.792 617.799C777.678 617.4 777.596 617.078 777.548 616.834C777.45 616.33 777.397 615.813 777.389 615.284L777.364 613.612C777.348 612.464 777.139 611.699 776.736 611.317C776.333 610.934 775.578 610.743 774.471 610.743ZM776.754 607.471C777.503 607.13 777.877 606.454 777.877 605.445C777.877 604.355 777.515 603.622 776.791 603.248C776.384 603.036 775.773 602.93 774.96 602.93L770.59 602.93L770.59 607.764L774.85 607.764C775.696 607.764 776.331 607.667 776.754 607.471Z"/>
</g>
<g fill="#383f50" opacity="1" stroke="none">
<path d="M844.177 599.556C846.259 599.556 847.763 600.413 848.692 602.128C849.411 603.453 849.77 605.269 849.77 607.575C849.77 609.761 849.444 611.569 848.793 612.999C847.85 615.05 846.307 616.076 844.166 616.076C842.234 616.076 840.797 615.238 839.854 613.561C839.067 612.16 838.674 610.281 838.674 607.923C838.674 606.096 838.91 604.527 839.382 603.217C840.265 600.776 841.864 599.556 844.177 599.556ZM844.155 614.234C845.203 614.234 846.038 613.77 846.659 612.842C847.281 611.913 847.591 610.184 847.591 607.653C847.591 605.826 847.367 604.323 846.917 603.144C846.468 601.965 845.596 601.375 844.301 601.375C843.11 601.375 842.24 601.935 841.69 603.054C841.139 604.174 840.864 605.823 840.864 608.001C840.864 609.641 841.04 610.959 841.392 611.955C841.931 613.474 842.852 614.234 844.155 614.234Z"/>
<path d="M853.588 611.539C853.723 612.692 854.258 613.489 855.194 613.931C855.673 614.156 856.228 614.268 856.856 614.268C858.054 614.268 858.942 613.886 859.518 613.123C860.095 612.359 860.383 611.513 860.383 610.584C860.383 609.461 860.04 608.593 859.355 607.979C858.67 607.365 857.848 607.058 856.89 607.058C856.194 607.058 855.597 607.193 855.099 607.462C854.601 607.732 854.176 608.106 853.824 608.585L852.072 608.484L853.296 599.826L861.652 599.826L861.652 601.78L854.812 601.78L854.127 606.249C854.502 605.965 854.857 605.752 855.194 605.609C855.793 605.362 856.486 605.239 857.272 605.239C858.747 605.239 859.997 605.714 861.023 606.665C862.049 607.616 862.562 608.821 862.562 610.281C862.562 611.801 862.092 613.141 861.152 614.302C860.212 615.462 858.713 616.042 856.654 616.042C855.344 616.042 854.185 615.674 853.178 614.936C852.171 614.199 851.608 613.066 851.488 611.539L853.588 611.539Z"/>
<path d="M868.772 599.141L870.479 599.141L865.246 615.638L863.539 615.638L868.772 599.141Z"/>
<path d="M876.15 599.556C878.232 599.556 879.737 600.413 880.665 602.128C881.384 603.453 881.743 605.269 881.743 607.575C881.743 609.761 881.417 611.569 880.766 612.999C879.823 615.05 878.28 616.076 876.139 616.076C874.208 616.076 872.77 615.238 871.827 613.561C871.041 612.16 870.647 610.281 870.647 607.923C870.647 606.096 870.883 604.527 871.355 603.217C872.238 600.776 873.837 599.556 876.15 599.556ZM876.128 614.234C877.176 614.234 878.011 613.77 878.632 612.842C879.254 611.913 879.564 610.184 879.564 607.653C879.564 605.826 879.34 604.323 878.891 603.144C878.441 601.965 877.569 601.375 876.274 601.375C875.083 601.375 874.213 601.935 873.663 603.054C873.113 604.174 872.837 605.823 872.837 608.001C872.837 609.641 873.013 610.959 873.365 611.955C873.904 613.474 874.825 614.234 876.128 614.234Z"/>
<path d="M883.439 615.638C883.514 614.253 883.8 613.048 884.298 612.022C884.796 610.996 885.767 610.064 887.212 609.226L889.369 607.979C890.334 607.417 891.012 606.938 891.401 606.541C892.015 605.92 892.322 605.209 892.322 604.408C892.322 603.472 892.041 602.729 891.48 602.178C890.918 601.628 890.17 601.353 889.234 601.353C887.849 601.353 886.89 601.877 886.359 602.925C886.074 603.487 885.917 604.265 885.887 605.261L883.832 605.261C883.854 603.861 884.113 602.719 884.607 601.836C885.483 600.279 887.029 599.5 889.245 599.5C891.087 599.5 892.433 599.998 893.282 600.994C894.132 601.989 894.557 603.097 894.557 604.318C894.557 605.606 894.104 606.706 893.198 607.62C892.674 608.151 891.735 608.795 890.379 609.551L888.841 610.405C888.107 610.809 887.531 611.195 887.111 611.561C886.363 612.213 885.891 612.935 885.696 613.729L894.479 613.729L894.479 615.638L883.439 615.638Z"/>
<path d="M900.745 599.141L902.452 599.141L897.219 615.638L895.512 615.638L900.745 599.141Z"/>
<path d="M902.621 615.638C902.695 614.253 902.982 613.048 903.48 612.022C903.978 610.996 904.949 610.064 906.394 609.226L908.55 607.979C909.516 607.417 910.194 606.938 910.583 606.541C911.197 605.92 911.504 605.209 911.504 604.408C911.504 603.472 911.223 602.729 910.662 602.178C910.1 601.628 909.351 601.353 908.416 601.353C907.03 601.353 906.072 601.877 905.541 602.925C905.256 603.487 905.099 604.265 905.069 605.261L903.014 605.261C903.036 603.861 903.294 602.719 903.789 601.836C904.665 600.279 906.211 599.5 908.427 599.5C910.269 599.5 911.614 599.998 912.464 600.994C913.314 601.989 913.739 603.097 913.739 604.318C913.739 605.606 913.286 606.706 912.38 607.62C911.856 608.151 910.916 608.795 909.561 609.551L908.022 610.405C907.289 610.809 906.712 611.195 906.293 611.561C905.544 612.213 905.073 612.935 904.878 613.729L913.66 613.729L913.66 615.638L902.621 615.638Z"/>
<path d="M920.915 599.556C922.996 599.556 924.501 600.413 925.43 602.128C926.148 603.453 926.508 605.269 926.508 607.575C926.508 609.761 926.182 611.569 925.531 612.999C924.587 615.05 923.045 616.076 920.904 616.076C918.972 616.076 917.535 615.238 916.591 613.561C915.805 612.16 915.412 610.281 915.412 607.923C915.412 606.096 915.648 604.527 916.12 603.217C917.003 600.776 918.602 599.556 920.915 599.556ZM920.893 614.234C921.941 614.234 922.776 613.77 923.397 612.842C924.018 611.913 924.329 610.184 924.329 607.653C924.329 605.826 924.104 604.323 923.655 603.144C923.206 601.965 922.334 601.375 921.039 601.375C919.848 601.375 918.978 601.935 918.427 603.054C917.877 604.174 917.602 605.823 917.602 608.001C917.602 609.641 917.778 610.959 918.13 611.955C918.669 613.474 919.59 614.234 920.893 614.234Z"/>
<path d="M928.204 615.638C928.278 614.253 928.565 613.048 929.063 612.022C929.561 610.996 930.532 610.064 931.977 609.226L934.133 607.979C935.099 607.417 935.777 606.938 936.166 606.541C936.78 605.92 937.087 605.209 937.087 604.408C937.087 603.472 936.806 602.729 936.245 602.178C935.683 601.628 934.934 601.353 933.999 601.353C932.613 601.353 931.655 601.877 931.124 602.925C930.839 603.487 930.682 604.265 930.652 605.261L928.597 605.261C928.619 603.861 928.877 602.719 929.372 601.836C930.248 600.279 931.794 599.5 934.01 599.5C935.852 599.5 937.197 599.998 938.047 600.994C938.897 601.989 939.322 603.097 939.322 604.318C939.322 605.606 938.869 606.706 937.963 607.62C937.439 608.151 936.499 608.795 935.144 609.551L933.605 610.405C932.872 610.809 932.295 611.195 931.876 611.561C931.127 612.213 930.656 612.935 930.461 613.729L939.243 613.729L939.243 615.638L928.204 615.638Z"/>
<path d="M946.251 616.076C944.349 616.076 942.97 615.554 942.113 614.509C941.255 613.465 940.827 612.194 940.827 610.697L942.938 610.697C943.028 611.737 943.222 612.494 943.522 612.965C944.046 613.811 944.993 614.234 946.363 614.234C947.426 614.234 948.28 613.95 948.924 613.381C949.568 612.812 949.89 612.078 949.89 611.18C949.89 610.072 949.551 609.297 948.873 608.855C948.196 608.413 947.254 608.192 946.049 608.192C945.914 608.192 945.777 608.194 945.639 608.198C945.5 608.202 945.36 608.207 945.218 608.215L945.218 606.429C945.427 606.452 945.603 606.467 945.746 606.474C945.888 606.482 946.041 606.485 946.206 606.485C946.962 606.485 947.584 606.366 948.07 606.126C948.924 605.707 949.351 604.958 949.351 603.88C949.351 603.079 949.066 602.461 948.497 602.027C947.928 601.593 947.265 601.375 946.509 601.375C945.162 601.375 944.229 601.825 943.713 602.723C943.428 603.217 943.267 603.921 943.23 604.834L941.231 604.834C941.231 603.637 941.471 602.618 941.95 601.78C942.773 600.282 944.222 599.534 946.296 599.534C947.936 599.534 949.205 599.899 950.103 600.629C951.001 601.359 951.451 602.416 951.451 603.801C951.451 604.79 951.185 605.591 950.653 606.205C950.324 606.586 949.897 606.886 949.373 607.103C950.219 607.335 950.88 607.782 951.355 608.445C951.831 609.108 952.068 609.918 952.068 610.876C952.068 612.411 951.563 613.662 950.552 614.627C949.541 615.593 948.108 616.076 946.251 616.076Z"/>
</g>
<path d="M998.334 607.242L1005.69 607.242L1005.69 609.952L998.334 609.952L998.334 607.242Z" fill="#383f50" opacity="1" stroke="none"/>
</g>
</g>
<g opacity="1" vectornator:layerName="ligne 3">
<path d="M528.699 635.645L1106.12 635.645L1106.12 693.557L528.699 693.557L528.699 635.645Z" fill="#6eaeff" fill-opacity="0.15" fill-rule="nonzero" opacity="1" stroke="none"/>
<g opacity="1">
<g fill="#383f50" opacity="1" stroke="none"/>
<g fill="#383f50" opacity="1" stroke="none">
<path d="M713.906 662.273C713.515 662.794 713.328 663.489 713.344 664.36L710.097 664.36C710.13 663.481 710.28 662.647 710.549 661.858C710.834 661.166 711.281 660.527 711.892 659.941C712.347 659.526 712.889 659.209 713.515 658.989C714.142 658.769 714.911 658.66 715.822 658.66C717.515 658.66 718.88 659.097 719.918 659.972C720.955 660.847 721.474 662.021 721.474 663.494C721.474 664.535 721.165 665.414 720.547 666.13C720.156 666.578 719.749 666.883 719.326 667.046C719.643 667.046 720.099 667.318 720.693 667.864C721.58 668.686 722.024 669.809 722.024 671.233C722.024 672.73 721.505 674.047 720.467 675.182C719.43 676.317 717.894 676.885 715.859 676.885C713.352 676.885 711.611 676.067 710.634 674.431C710.122 673.56 709.837 672.421 709.78 671.013L713.198 671.013C713.198 671.721 713.312 672.307 713.54 672.771C713.963 673.625 714.732 674.053 715.847 674.053C716.53 674.053 717.127 673.819 717.635 673.351C718.144 672.883 718.398 672.209 718.398 671.33C718.398 670.167 717.926 669.39 716.982 668.999C716.445 668.779 715.599 668.669 714.443 668.669L714.443 666.179C715.574 666.163 716.364 666.053 716.811 665.849C717.584 665.508 717.971 664.816 717.971 663.774C717.971 663.099 717.773 662.55 717.379 662.126C716.984 661.703 716.429 661.492 715.713 661.492C714.891 661.492 714.288 661.752 713.906 662.273Z"/>
<path d="M744.399 668.584L735.659 668.584L735.659 673.21L745.62 673.21L745.62 676.445L731.984 676.445L731.984 658.452L745.18 658.452L745.18 661.638L735.659 661.638L735.659 665.459L744.399 665.459L744.399 668.584Z"/>
<path d="M759.194 669.512L759.194 658.452L763.015 658.452L763.015 669.512C763.015 671.424 762.718 672.913 762.124 673.979C761.017 675.932 758.905 676.909 755.788 676.909C752.671 676.909 750.555 675.932 749.441 673.979C748.846 672.913 748.549 671.424 748.549 669.512L748.549 658.452L752.37 658.452L752.37 669.512C752.37 670.749 752.517 671.652 752.81 672.222C753.265 673.231 754.258 673.735 755.788 673.735C757.31 673.735 758.299 673.231 758.755 672.222C759.047 671.652 759.194 670.749 759.194 669.512Z"/>
<path d="M774.245 669.39L770.363 669.39L770.363 676.445L766.689 676.445L766.689 658.452L775.515 658.452C776.776 658.476 777.747 658.631 778.426 658.916C779.106 659.201 779.681 659.62 780.153 660.173C780.544 660.629 780.853 661.133 781.081 661.687C781.309 662.24 781.423 662.871 781.423 663.579C781.423 664.433 781.207 665.274 780.776 666.1C780.345 666.926 779.633 667.51 778.64 667.851C779.47 668.185 780.058 668.659 780.404 669.274C780.75 669.888 780.922 670.826 780.922 672.087L780.922 673.296C780.922 674.118 780.955 674.675 781.02 674.968C781.118 675.432 781.346 675.774 781.704 675.994L781.704 676.445L777.566 676.445C777.452 676.046 777.37 675.725 777.321 675.481C777.224 674.976 777.171 674.46 777.163 673.931L777.138 672.258C777.122 671.111 776.912 670.346 776.51 669.963C776.107 669.581 775.352 669.39 774.245 669.39ZM776.528 666.118C777.277 665.776 777.651 665.101 777.651 664.092C777.651 663.001 777.289 662.269 776.565 661.894C776.158 661.683 775.547 661.577 774.734 661.577L770.363 661.577L770.363 666.411L774.624 666.411C775.47 666.411 776.105 666.313 776.528 666.118Z"/>
</g>
<g fill="#383f50" opacity="1" stroke="none">
<path d="M843.951 658.203C846.033 658.203 847.537 659.06 848.466 660.774C849.185 662.1 849.544 663.915 849.544 666.221C849.544 668.407 849.218 670.216 848.567 671.646C847.623 673.697 846.081 674.723 843.94 674.723C842.008 674.723 840.571 673.884 839.627 672.207C838.841 670.807 838.448 668.928 838.448 666.569C838.448 664.743 838.684 663.174 839.156 661.864C840.039 659.423 841.638 658.203 843.951 658.203ZM843.929 672.881C844.977 672.881 845.812 672.417 846.433 671.488C847.054 670.56 847.365 668.83 847.365 666.3C847.365 664.473 847.141 662.97 846.691 661.791C846.242 660.612 845.37 660.022 844.075 660.022C842.884 660.022 842.014 660.582 841.464 661.701C840.913 662.82 840.638 664.469 840.638 666.648C840.638 668.288 840.814 669.605 841.166 670.601C841.705 672.121 842.626 672.881 843.929 672.881Z"/>
<path d="M852.722 662.897L852.722 661.347C854.182 661.205 855.2 660.967 855.777 660.634C856.353 660.301 856.784 659.513 857.068 658.27L858.663 658.27L858.663 674.285L856.507 674.285L856.507 662.897L852.722 662.897Z"/>
<path d="M868.546 657.787L870.253 657.787L865.019 674.285L863.312 674.285L868.546 657.787Z"/>
<path d="M875.924 658.203C878.006 658.203 879.511 659.06 880.439 660.774C881.158 662.1 881.517 663.915 881.517 666.221C881.517 668.407 881.191 670.216 880.54 671.646C879.597 673.697 878.054 674.723 875.913 674.723C873.981 674.723 872.544 673.884 871.601 672.207C870.814 670.807 870.421 668.928 870.421 666.569C870.421 664.743 870.657 663.174 871.129 661.864C872.012 659.423 873.611 658.203 875.924 658.203ZM875.902 672.881C876.95 672.881 877.785 672.417 878.406 671.488C879.028 670.56 879.338 668.83 879.338 666.3C879.338 664.473 879.114 662.97 878.665 661.791C878.215 660.612 877.343 660.022 876.048 660.022C874.857 660.022 873.987 660.582 873.437 661.701C872.886 662.82 872.611 664.469 872.611 666.648C872.611 668.288 872.787 669.605 873.139 670.601C873.678 672.121 874.599 672.881 875.902 672.881Z"/>
<path d="M883.213 674.285C883.288 672.9 883.574 671.694 884.072 670.669C884.57 669.643 885.541 668.711 886.986 667.872L889.143 666.626C890.108 666.064 890.786 665.585 891.175 665.188C891.789 664.567 892.096 663.855 892.096 663.054C892.096 662.118 891.815 661.375 891.254 660.825C890.692 660.275 889.944 660 889.008 660C887.623 660 886.664 660.524 886.133 661.572C885.848 662.133 885.691 662.912 885.661 663.908L883.606 663.908C883.628 662.508 883.887 661.366 884.381 660.482C885.257 658.925 886.803 658.147 889.019 658.147C890.861 658.147 892.207 658.644 893.056 659.64C893.906 660.636 894.331 661.744 894.331 662.964C894.331 664.252 893.878 665.353 892.972 666.266C892.448 666.798 891.508 667.442 890.153 668.198L888.615 669.051C887.881 669.456 887.304 669.841 886.885 670.208C886.137 670.859 885.665 671.582 885.47 672.376L894.252 672.376L894.252 674.285L883.213 674.285Z"/>
<path d="M900.519 657.787L902.226 657.787L896.993 674.285L895.286 674.285L900.519 657.787Z"/>
<path d="M902.394 674.285C902.469 672.9 902.756 671.694 903.254 670.669C903.751 669.643 904.723 668.711 906.168 667.872L908.324 666.626C909.29 666.064 909.968 665.585 910.357 665.188C910.971 664.567 911.278 663.855 911.278 663.054C911.278 662.118 910.997 661.375 910.435 660.825C909.874 660.275 909.125 660 908.189 660C906.804 660 905.846 660.524 905.314 661.572C905.03 662.133 904.873 662.912 904.843 663.908L902.788 663.908C902.81 662.508 903.068 661.366 903.562 660.482C904.438 658.925 905.984 658.147 908.201 658.147C910.042 658.147 911.388 658.644 912.238 659.64C913.088 660.636 913.513 661.744 913.513 662.964C913.513 664.252 913.06 665.353 912.154 666.266C911.63 666.798 910.69 667.442 909.335 668.198L907.796 669.051C907.063 669.456 906.486 669.841 906.067 670.208C905.318 670.859 904.846 671.582 904.652 672.376L913.434 672.376L913.434 674.285L902.394 674.285Z"/>
<path d="M920.689 658.203C922.77 658.203 924.275 659.06 925.204 660.774C925.922 662.1 926.282 663.915 926.282 666.221C926.282 668.407 925.956 670.216 925.305 671.646C924.361 673.697 922.819 674.723 920.678 674.723C918.746 674.723 917.309 673.884 916.365 672.207C915.579 670.807 915.186 668.928 915.186 666.569C915.186 664.743 915.422 663.174 915.894 661.864C916.777 659.423 918.375 658.203 920.689 658.203ZM920.666 672.881C921.715 672.881 922.549 672.417 923.171 671.488C923.792 670.56 924.103 668.83 924.103 666.3C924.103 664.473 923.878 662.97 923.429 661.791C922.98 660.612 922.108 660.022 920.812 660.022C919.622 660.022 918.752 660.582 918.201 661.701C917.651 662.82 917.376 664.469 917.376 666.648C917.376 668.288 917.552 669.605 917.904 670.601C918.443 672.121 919.364 672.881 920.666 672.881Z"/>
<path d="M927.977 674.285C928.052 672.9 928.339 671.694 928.837 670.669C929.335 669.643 930.306 668.711 931.751 667.872L933.907 666.626C934.873 666.064 935.551 665.585 935.94 665.188C936.554 664.567 936.861 663.855 936.861 663.054C936.861 662.118 936.58 661.375 936.019 660.825C935.457 660.275 934.708 660 933.772 660C932.387 660 931.429 660.524 930.897 661.572C930.613 662.133 930.456 662.912 930.426 663.908L928.371 663.908C928.393 662.508 928.651 661.366 929.145 660.482C930.021 658.925 931.567 658.147 933.784 658.147C935.625 658.147 936.971 658.644 937.821 659.64C938.671 660.636 939.096 661.744 939.096 662.964C939.096 664.252 938.643 665.353 937.737 666.266C937.213 666.798 936.273 667.442 934.918 668.198L933.379 669.051C932.646 669.456 932.069 669.841 931.65 670.208C930.901 670.859 930.429 671.582 930.235 672.376L939.017 672.376L939.017 674.285L927.977 674.285Z"/>
<path d="M946.025 674.723C944.123 674.723 942.744 674.201 941.886 673.156C941.029 672.112 940.601 670.841 940.601 669.343L942.712 669.343C942.802 670.384 942.996 671.14 943.296 671.612C943.82 672.458 944.767 672.881 946.137 672.881C947.2 672.881 948.054 672.596 948.698 672.027C949.342 671.458 949.664 670.725 949.664 669.826C949.664 668.718 949.325 667.943 948.647 667.502C947.97 667.06 947.028 666.839 945.823 666.839C945.688 666.839 945.551 666.841 945.413 666.845C945.274 666.848 945.134 666.854 944.992 666.861L944.992 665.076C945.201 665.098 945.377 665.113 945.519 665.121C945.662 665.128 945.815 665.132 945.98 665.132C946.736 665.132 947.358 665.012 947.844 664.773C948.698 664.353 949.124 663.605 949.124 662.526C949.124 661.725 948.84 661.108 948.271 660.673C947.702 660.239 947.039 660.022 946.283 660.022C944.935 660.022 944.003 660.471 943.487 661.37C943.202 661.864 943.041 662.568 943.004 663.481L941.005 663.481C941.005 662.283 941.244 661.265 941.724 660.426C942.547 658.929 943.996 658.18 946.07 658.18C947.709 658.18 948.978 658.545 949.877 659.275C950.775 660.005 951.225 661.063 951.225 662.448C951.225 663.436 950.959 664.237 950.427 664.851C950.098 665.233 949.671 665.532 949.147 665.75C949.993 665.982 950.654 666.429 951.129 667.092C951.605 667.754 951.842 668.565 951.842 669.523C951.842 671.058 951.337 672.308 950.326 673.274C949.315 674.24 947.882 674.723 946.025 674.723Z"/>
</g>
<path d="M998.108 665.889L1005.46 665.889L1005.46 668.599L998.108 668.599L998.108 665.889Z" fill="#383f50" opacity="1" stroke="none"/>
</g>
</g>
</g>
<g opacity="1" vectornator:layerName="Grouper 1">
<path d="M136.225 1143.82L136.225 709.425C136.225 702.838 141.409 697.498 147.805 697.498L845.572 697.498C851.968 697.498 857.152 702.838 857.152 709.425L857.152 1143.82C857.152 1150.41 851.968 1155.75 845.572 1155.75L147.805 1155.75C141.409 1155.75 136.225 1150.41 136.225 1143.82Z" fill="url(#LinearGradient)" fill-rule="nonzero" opacity="1" stroke="none"/>
<g opacity="1" vectornator:layerName="txt">
<g fill="#383f50" opacity="1" stroke="none">
<path d="M233.612 765.968L238.47 765.968L238.47 797.56L256.634 797.56L256.634 801.833L233.612 801.833L233.612 765.968Z"/>
<path d="M276.532 764.992C281.073 764.992 284.596 766.188 287.103 768.581C289.609 770.973 291.001 773.691 291.278 776.735L286.541 776.735C286.004 774.424 284.934 772.593 283.331 771.242C281.728 769.891 279.478 769.215 276.58 769.215C273.049 769.215 270.196 770.456 268.023 772.939C265.85 775.421 264.764 779.225 264.764 784.352C264.764 788.551 265.745 791.957 267.706 794.569C269.667 797.182 272.593 798.488 276.483 798.488C280.064 798.488 282.79 797.113 284.661 794.362C285.654 792.913 286.395 791.009 286.883 788.649L291.619 788.649C291.196 792.425 289.797 795.591 287.42 798.146C284.572 801.222 280.731 802.76 275.897 802.76C271.73 802.76 268.231 801.499 265.399 798.976C261.672 795.64 259.808 790.488 259.808 783.522C259.808 778.232 261.208 773.895 264.007 770.509C267.035 766.831 271.209 764.992 276.532 764.992Z"/>
<path d="M297.528 765.968L302.386 765.968L302.386 797.56L320.55 797.56L320.55 801.833L297.528 801.833L297.528 765.968Z"/>
</g>
<g fill="#383f50" opacity="1" stroke="none">
<path d="M534.36 1006.74L560.507 1006.74L560.507 1011.13L539.096 1011.13L539.096 1022.02L558.896 1022.02L558.896 1026.17L539.096 1026.17L539.096 1038.33L560.873 1038.33L560.873 1042.6L534.36 1042.6L534.36 1006.74Z"/>
<path d="M572.519 1006.74L572.519 1028.9C572.519 1031.51 573.007 1033.67 573.984 1035.4C575.432 1038 577.874 1039.3 581.308 1039.3C585.426 1039.3 588.225 1037.9 589.706 1035.08C590.504 1033.55 590.903 1031.49 590.903 1028.9L590.903 1006.74L595.834 1006.74L595.834 1026.88C595.834 1031.29 595.24 1034.68 594.052 1037.06C591.871 1041.39 587.753 1043.55 581.699 1043.55C575.644 1043.55 571.534 1041.39 569.369 1037.06C568.181 1034.68 567.587 1031.29 567.587 1026.88L567.587 1006.74L572.519 1006.74Z"/>
<path d="M620.029 1023.17C622.307 1023.17 624.11 1022.71 625.436 1021.8C626.763 1020.89 627.426 1019.24 627.426 1016.87C627.426 1014.31 626.498 1012.57 624.643 1011.64C623.65 1011.15 622.324 1010.91 620.663 1010.91L608.798 1010.91L608.798 1023.17L620.029 1023.17ZM603.94 1006.74L620.541 1006.74C623.276 1006.74 625.53 1007.13 627.304 1007.93C630.673 1009.46 632.358 1012.29 632.358 1016.4C632.358 1018.55 631.914 1020.31 631.027 1021.68C630.14 1023.04 628.899 1024.14 627.304 1024.97C628.704 1025.54 629.758 1026.29 630.466 1027.22C631.174 1028.15 631.568 1029.65 631.65 1031.74L631.821 1036.54C631.869 1037.91 631.983 1038.93 632.162 1039.6C632.455 1040.74 632.976 1041.47 633.725 1041.79L633.725 1042.6L627.768 1042.6C627.605 1042.29 627.475 1041.89 627.377 1041.4C627.28 1040.91 627.198 1039.97 627.133 1038.57L626.84 1032.59C626.726 1030.25 625.855 1028.68 624.228 1027.88C623.3 1027.44 621.843 1027.22 619.858 1027.22L608.798 1027.22L608.798 1042.6L603.94 1042.6L603.94 1006.74Z"/>
</g>
<g fill="#383f50" opacity="1" stroke="none">
<path d="M268.768 1029.85C260.809 1029.85 253.656 1027.5 247.308 1022.78C240.96 1018.07 237.323 1011.2 236.395 1002.17L257.196 1002.17C257.684 1005.29 259.002 1007.83 261.151 1009.78C263.299 1011.74 266.156 1012.71 269.72 1012.71C276.605 1012.71 281.439 1008.9 284.222 1001.29C285.736 997.088 286.688 990.96 287.078 982.903C285.174 985.296 283.148 987.127 280.999 988.396C277.093 990.74 272.284 991.912 266.571 991.912C258.123 991.912 250.628 988.994 244.085 983.159C237.542 977.325 234.271 968.914 234.271 957.928C234.271 946.551 237.555 937.334 244.122 930.279C250.689 923.223 259.222 919.695 269.72 919.695C285.882 919.695 296.966 926.848 302.972 941.155C306.39 949.261 308.099 959.929 308.099 973.162C308.099 986.004 306.463 996.721 303.192 1005.32C296.942 1021.67 285.467 1029.85 268.768 1029.85ZM261.444 940.13C257.44 943.255 255.438 948.553 255.438 956.023C255.438 962.322 256.72 967.046 259.283 970.196C261.847 973.345 265.789 974.92 271.112 974.92C273.993 974.92 276.703 974.09 279.242 972.429C283.978 969.402 286.346 964.153 286.346 956.682C286.346 950.677 284.942 945.916 282.135 942.4C279.327 938.885 275.482 937.127 270.599 937.127C267.035 937.127 263.983 938.128 261.444 940.13Z"/>
<path d="M391.668 987.591L391.668 1003.92L379.657 1003.92L379.657 1026.78L359.222 1026.78L359.222 1003.92L317.181 1003.92L317.181 985.686L356.219 921.233L379.657 921.233L379.657 987.591L391.668 987.591ZM332.635 987.591L359.222 987.591L359.222 941.741L332.635 987.591Z"/>
<path d="M462.713 954.705C457.147 962.615 452.484 970.769 448.724 979.168C445.745 985.76 443.06 993.816 440.667 1003.34C438.275 1012.86 437.078 1020.67 437.078 1026.78L415.399 1026.78C416.034 1007.73 422.284 987.932 434.149 967.376C441.815 954.632 448.236 945.745 453.411 940.716L400.457 940.716L400.75 921.966L475.75 921.966L475.75 938.299C472.625 941.375 468.28 946.844 462.713 954.705Z"/>
</g>
</g>
</g>
</g>
</svg>
