<?xml version="1.0" encoding="UTF-8" standalone="no"?>
<!DOCTYPE svg PUBLIC "-//W3C//DTD SVG 1.1//EN" "http://www.w3.org/Graphics/SVG/1.1/DTD/svg11.dtd">
<!-- Created with Vectornator (http://vectornator.io/) -->
<svg height="100%" stroke-miterlimit="10" style="fill-rule:nonzero;clip-rule:evenodd;stroke-linecap:round;stroke-linejoin:round;" version="1.1" viewBox="0 0 512 512" width="100%" xml:space="preserve" xmlns="http://www.w3.org/2000/svg" xmlns:vectornator="http://vectornator.io" xmlns:xlink="http://www.w3.org/1999/xlink">
<defs/>
<g id="Calque-1" vectornator:layerName="Calque 1">
<path d="M6.32812 93.2969L6.32812 418.703L84.2656 418.703L84.2656 373.734C102.37 401.539 126.821 418.703 153.797 418.703C206.429 418.703 249.594 353.711 254.234 270.797C259.657 353.711 310.104 418.703 371.578 418.703C432.655 418.703 482.865 354.568 488.828 272.422L505.672 272.422L505.672 239.609L488.828 239.609C482.875 157.449 432.662 93.2969 371.578 93.2969C310.104 93.2969 259.657 158.318 254.234 241.234C249.594 158.317 206.429 93.2969 153.797 93.2969C126.821 93.2969 84.2656 93.2969 84.2656 93.2969L6.32812 93.2969ZM136.734 174.672C199.136 174.672 249.734 211.087 249.734 256.016C249.734 300.944 199.136 337.359 136.734 337.359C74.3327 337.359 23.7344 300.944 23.7344 256.016C23.7344 211.087 74.3327 174.672 136.734 174.672ZM371.547 174.672C426.148 174.672 471.73 202.539 482.266 239.609L373.766 239.609L373.766 272.422L482.266 272.422C471.715 309.478 426.135 337.359 371.547 337.359C309.145 337.359 258.578 300.944 258.578 256.016C258.578 211.087 309.145 174.672 371.547 174.672Z" fill="#04102e" fill-rule="nonzero" opacity="1" stroke="none"/>
</g>
</svg>
